<svg width="146" height="90" viewBox="0 0 146 90" fill="none" xmlns="http://www.w3.org/2000/svg">
<g filter="url(#filter0_d_4128_11272)">
<mask id="mask0_4128_11272" style="mask-type:luminance" maskUnits="userSpaceOnUse" x="47" y="0" width="54" height="54">
<path d="M47.4287 0H100.639V53.2531H47.4287V0Z" fill="white"/>
</mask>
<g mask="url(#mask0_4128_11272)">
<path fill-rule="evenodd" clip-rule="evenodd" d="M74.028 -0.00854492C88.7167 -0.00854492 100.621 11.899 100.621 26.5849C100.621 37.7929 93.6859 47.38 83.8713 51.2926L83.4827 42.9146V42.8974C83.5057 41.2419 84.2053 39.9349 85.7571 39.2785L85.9557 39.1978L85.9672 39.195L85.9788 39.1892L85.9989 39.1834C87.1419 38.7199 88.0747 38.0952 88.7081 37.0184C89.4998 35.6739 89.6524 33.8832 89.6524 32.3573C89.6524 29.4265 88.7887 25.9688 87.3002 23.4324C86.2436 21.633 84.5767 19.8135 82.3224 19.8135C80.071 19.8135 78.4012 21.633 77.3446 23.4324C75.8561 25.9688 74.9924 29.4265 74.9924 32.3573C74.9924 33.8832 75.145 35.6739 75.9368 37.0184C76.5788 38.1038 77.5202 38.7286 78.6689 39.1921C78.7006 39.2036 78.7323 39.218 78.7668 39.2295H78.7755L78.8734 39.2727C80.4309 39.9291 81.142 41.2189 81.1622 42.8974V42.9146L80.7246 52.3261C78.5854 52.8818 76.3427 53.1783 74.028 53.1783C71.6355 53.1783 69.315 52.8588 67.1068 52.2657L66.698 43.453V43.4329C66.721 41.7343 67.4437 40.3955 69.0358 39.7247L69.2373 39.6441L69.2459 39.6412L69.2517 39.6383L69.2747 39.6297C70.3975 39.1748 71.3131 38.5645 71.9349 37.505C72.718 36.1778 72.8677 34.3985 72.8677 32.8957C72.8677 32.7489 72.862 32.602 72.8533 32.4581C72.8476 32.3746 72.8389 32.2911 72.8303 32.2076L72.8159 32.0867L72.8389 32.0003L71.8716 20.7549H70.8611L70.7718 32.6423L69.0876 32.8093L68.0886 19.373L66.9917 19.4392L66.7729 32.9763L66.1769 32.9993C66.0531 33.0051 65.9293 33.008 65.8055 33.008C65.6817 33.008 65.555 33.0051 65.4284 32.9993L64.8353 32.9763L64.533 19.4392L63.4361 19.3758L62.5206 32.8122L60.8363 32.6452L60.75 20.7549H59.7337L58.4266 32.0061L58.4467 32.0867L58.4352 32.2076C58.4237 32.2911 58.418 32.3746 58.4122 32.4581C58.4036 32.602 58.3978 32.7489 58.3978 32.8957C58.3978 34.3985 58.5475 36.1778 59.3306 37.505C59.9582 38.5731 60.8853 39.1834 62.0138 39.6383C62.0398 39.6498 62.0657 39.6585 62.0916 39.67H62.1002L62.2183 39.7189C63.8103 40.3926 64.5416 41.717 64.5647 43.4329V43.453L64.2019 51.307C54.3758 47.4001 47.4316 37.8044 47.4316 26.5849C47.4374 11.8962 59.3421 -0.00854492 74.028 -0.00854492Z" fill="#4338CA"/>
</g>
</g>
<path d="M17.7617 46.7947H26.2145C28.4774 46.7947 30.3257 47.4021 31.7537 48.6142C33.1875 49.8292 33.9072 51.5594 33.9072 53.808C33.9072 55.544 33.4725 56.9979 32.6059 58.1725C31.7365 59.3472 30.5589 60.1734 29.0705 60.6485L37.2008 70.4141H30.3603L23.1512 61.0861V70.4141H17.7617V46.7947ZM23.1512 57.2743H23.7731C24.2712 57.2743 24.6886 57.2685 25.0284 57.2512C25.3738 57.2282 25.7654 57.1591 26.203 57.044C26.6464 56.9288 27.0005 56.7676 27.2625 56.5603C27.5302 56.3472 27.7605 56.0392 27.9534 55.639C28.1434 55.2417 28.2413 54.758 28.2413 54.188C28.2413 53.6122 28.1434 53.1256 27.9534 52.7254C27.7605 52.3195 27.5302 52.0114 27.2625 51.8042C27.0005 51.5969 26.6464 51.4356 26.203 51.3205C25.7654 51.2053 25.3738 51.142 25.0284 51.1247C24.6886 51.1017 24.2712 51.0902 23.7731 51.0902H23.1512V57.2743Z" fill="black"/>
<path d="M50.6769 63.7688H40.0361C40.0361 64.7995 40.37 65.5624 41.038 66.0605C41.7059 66.5614 42.4314 66.809 43.2145 66.809C44.0264 66.809 44.6713 66.7025 45.1492 66.4866C45.6329 66.2649 46.177 65.8273 46.7845 65.1737L50.4581 67.0048C48.9293 69.5614 46.3872 70.8396 42.8345 70.8396C40.6234 70.8396 38.7232 70.0853 37.134 68.571C35.5506 67.0509 34.7617 65.2256 34.7617 63.0893C34.7617 60.9473 35.5506 59.1134 37.134 57.5847C38.7232 56.0588 40.6234 55.293 42.8345 55.293C45.1665 55.293 47.0637 55.9695 48.5234 57.3198C49.9802 58.6643 50.7115 60.5875 50.7115 63.0893C50.7115 63.4291 50.6999 63.6536 50.6769 63.7688ZM40.1743 60.9704H45.7596C45.6444 60.2046 45.3392 59.6172 44.8498 59.2084C44.3661 58.7938 43.7442 58.5866 42.9842 58.5866C42.1378 58.5866 41.4669 58.8111 40.9689 59.2545C40.4766 59.6921 40.2117 60.265 40.1743 60.9704Z" fill="black"/>
<path d="M57.0378 55.293C57.8727 55.293 58.7019 55.3909 59.5253 55.5809C60.3458 55.7738 60.9561 55.9667 61.3563 56.1567L61.9552 56.4446L60.2968 59.7612C59.151 59.1566 58.0656 58.8514 57.0378 58.8514C56.462 58.8514 56.0532 58.9148 55.8171 59.0357C55.5781 59.1595 55.4601 59.3927 55.4601 59.7382C55.4601 59.8159 55.4659 59.8936 55.4831 59.9685C55.5062 60.0462 55.5436 60.1182 55.5983 60.1873C55.6588 60.2506 55.7135 60.3024 55.7595 60.3485C55.8056 60.3946 55.8862 60.4493 56.0014 60.5097C56.1165 60.5644 56.2029 60.6076 56.2662 60.6364C56.3353 60.6681 56.4447 60.7141 56.6002 60.7746C56.7528 60.8293 56.8679 60.8725 56.9457 60.9013C57.0205 60.9243 57.1472 60.9675 57.3257 61.028C57.51 61.0827 57.651 61.1201 57.7518 61.1431C58.342 61.313 58.8573 61.5059 59.2949 61.7189C59.7326 61.9262 60.1932 62.2112 60.6769 62.5711C61.1663 62.9339 61.5463 63.3888 61.817 63.9415C62.0847 64.4943 62.22 65.1248 62.22 65.8302C62.22 69.1698 59.8967 70.8396 55.2528 70.8396C54.2077 70.8396 53.2145 70.6784 52.2702 70.356C51.3258 70.0335 50.6406 69.7111 50.2203 69.3886L49.5869 68.8704L51.6483 65.4041C51.8009 65.5365 51.9995 65.692 52.2471 65.8762C52.5005 66.0605 52.9496 66.3109 53.5945 66.6248C54.2452 66.9415 54.8094 67.0969 55.2874 67.0969C56.3382 67.0969 56.8651 66.7457 56.8651 66.0374C56.8651 65.7092 56.7297 65.4559 56.462 65.2774C56.1914 65.0931 55.7365 64.8858 55.0916 64.6555C54.4524 64.4252 53.9544 64.2179 53.5945 64.0336C52.679 63.55 51.9535 63.0087 51.418 62.4099C50.8882 61.8111 50.6234 61.0164 50.6234 60.0261C50.6234 58.5376 51.1992 57.3774 52.3508 56.5482C53.5024 55.7133 55.0628 55.293 57.0378 55.293Z" fill="black"/>
<path d="M63.158 55.7306V50.2605H68.2251V55.7306H71.3114V59.5885H68.2251V64.264C68.2251 65.6172 68.6051 66.2908 69.3652 66.2908C69.5552 66.2908 69.7567 66.2534 69.964 66.1757C70.1771 66.1008 70.344 66.0231 70.4592 65.9454L70.6319 65.8302L71.8872 69.9299C70.796 70.5345 69.5552 70.8397 68.1675 70.8397C67.2059 70.8397 66.3825 70.6727 65.6915 70.3445C65.0063 70.0076 64.4881 69.5585 64.1369 68.9971C63.7914 68.4386 63.5409 67.8455 63.3883 67.2236C63.2329 66.6018 63.158 65.9396 63.158 65.2314V59.5885H61.0391V55.7306H63.158Z" fill="black"/>
<g filter="url(#filter1_d_4128_11272)">
<mask id="mask1_4128_11272" style="mask-type:luminance" maskUnits="userSpaceOnUse" x="4" y="77" width="37" height="5">
<path d="M39.5361 78.2419V81.3308H4.87598V78.2419H39.5361Z" fill="white" stroke="white" stroke-width="1.33333"/>
</mask>
<g mask="url(#mask1_4128_11272)">
<path d="M4.45068 79.9849H38.1236" stroke="#4338CA" stroke-width="7.21508"/>
</g>
</g>
<g filter="url(#filter2_d_4128_11272)">
<mask id="mask2_4128_11272" style="mask-type:luminance" maskUnits="userSpaceOnUse" x="4" y="45" width="5" height="37">
<path d="M7.84375 45.8127V81.3333H4.87598V45.8127H7.84375Z" fill="white" stroke="white" stroke-width="1.33333"/>
</mask>
<g mask="url(#mask2_4128_11272)">
<path d="M6.46338 47.7456V80.6182" stroke="#4338CA" stroke-width="7.21147"/>
</g>
</g>
<g filter="url(#filter3_d_4128_11272)">
<mask id="mask3_4128_11272" style="mask-type:luminance" maskUnits="userSpaceOnUse" x="105" y="34" width="37" height="6">
<path d="M141.125 35.4944V38.5833H106.465V35.4944H141.125Z" fill="white" stroke="white" stroke-width="1.33333"/>
</mask>
<g mask="url(#mask3_4128_11272)">
<path d="M141.544 36.8367H107.871" stroke="#4338CA" stroke-width="7.21508"/>
</g>
</g>
<g filter="url(#filter4_d_4128_11272)">
<mask id="mask4_4128_11272" style="mask-type:luminance" maskUnits="userSpaceOnUse" x="137" y="34" width="5" height="38">
<path d="M141.125 34.7573V71.0122H138.157V34.7573H141.125Z" fill="white" stroke="white" stroke-width="1.33333"/>
</mask>
<g mask="url(#mask4_4128_11272)">
<path d="M139.531 69.0764V36.2038" stroke="#4338CA" stroke-width="7.21147"/>
</g>
</g>
<path d="M84.989 46.7947V63.7463C84.989 66.0581 84.3499 67.8201 83.0773 69.0322C81.8106 70.2385 79.9939 70.8402 77.6302 70.8402C76.9997 70.8402 76.3779 70.7625 75.7646 70.6099C75.1572 70.463 74.6418 70.2817 74.2215 70.0571C73.7983 69.8354 73.4182 69.6137 73.0814 69.3892C72.7532 69.1588 72.5114 68.9688 72.3559 68.8134L72.1025 68.583L73.8184 64.0918C74.947 65.1599 75.9662 65.6925 76.8817 65.6925C77.7022 65.6925 78.3586 65.4219 78.8509 64.8749C79.349 64.3307 79.5995 63.4929 79.5995 62.3644V46.7947H84.989Z" fill="black"/>
<path d="M97.6951 46.7947L107.23 70.4141H101.438L99.6989 65.6925H90.7048L88.9659 70.4141H83.1733L92.7086 46.7947H97.6951ZM97.8678 60.9709L95.2306 54.0959H95.1731L92.5359 60.9709H97.8678Z" fill="black"/>
<path d="M125.232 70.4141L124.115 56.4106H123.966L119.129 70.2759H115.927L111.091 56.4106H110.941L109.824 70.4141H104.446L106.565 46.7947H112.288L117.528 60.4182L122.768 46.7947H128.491L130.61 70.4141H125.232Z" fill="black"/>
<defs>
<filter id="filter0_d_4128_11272" x="43.4316" y="0" width="61.1899" height="61.1782" filterUnits="userSpaceOnUse" color-interpolation-filters="sRGB">
<feFlood flood-opacity="0" result="BackgroundImageFix"/>
<feColorMatrix in="SourceAlpha" type="matrix" values="0 0 0 0 0 0 0 0 0 0 0 0 0 0 0 0 0 0 127 0" result="hardAlpha"/>
<feOffset dy="4"/>
<feGaussianBlur stdDeviation="2"/>
<feComposite in2="hardAlpha" operator="out"/>
<feColorMatrix type="matrix" values="0 0 0 0 0 0 0 0 0 0 0 0 0 0 0 0 0 0 0.25 0"/>
<feBlend mode="normal" in2="BackgroundImageFix" result="effect1_dropShadow_4128_11272"/>
<feBlend mode="normal" in="SourceGraphic" in2="effect1_dropShadow_4128_11272" result="shape"/>
</filter>
<filter id="filter1_d_4128_11272" x="0.450684" y="77.575" width="41.6729" height="12.4221" filterUnits="userSpaceOnUse" color-interpolation-filters="sRGB">
<feFlood flood-opacity="0" result="BackgroundImageFix"/>
<feColorMatrix in="SourceAlpha" type="matrix" values="0 0 0 0 0 0 0 0 0 0 0 0 0 0 0 0 0 0 127 0" result="hardAlpha"/>
<feOffset dy="4"/>
<feGaussianBlur stdDeviation="2"/>
<feComposite in2="hardAlpha" operator="out"/>
<feColorMatrix type="matrix" values="0 0 0 0 0 0 0 0 0 0 0 0 0 0 0 0 0 0 0.25 0"/>
<feBlend mode="normal" in2="BackgroundImageFix" result="effect1_dropShadow_4128_11272"/>
<feBlend mode="normal" in="SourceGraphic" in2="effect1_dropShadow_4128_11272" result="shape"/>
</filter>
<filter id="filter2_d_4128_11272" x="0.208984" y="47.7456" width="12.3013" height="40.8726" filterUnits="userSpaceOnUse" color-interpolation-filters="sRGB">
<feFlood flood-opacity="0" result="BackgroundImageFix"/>
<feColorMatrix in="SourceAlpha" type="matrix" values="0 0 0 0 0 0 0 0 0 0 0 0 0 0 0 0 0 0 127 0" result="hardAlpha"/>
<feOffset dy="4"/>
<feGaussianBlur stdDeviation="2"/>
<feComposite in2="hardAlpha" operator="out"/>
<feColorMatrix type="matrix" values="0 0 0 0 0 0 0 0 0 0 0 0 0 0 0 0 0 0 0.25 0"/>
<feBlend mode="normal" in2="BackgroundImageFix" result="effect1_dropShadow_4128_11272"/>
<feBlend mode="normal" in="SourceGraphic" in2="effect1_dropShadow_4128_11272" result="shape"/>
</filter>
<filter id="filter3_d_4128_11272" x="103.871" y="34.8274" width="41.6729" height="12.4221" filterUnits="userSpaceOnUse" color-interpolation-filters="sRGB">
<feFlood flood-opacity="0" result="BackgroundImageFix"/>
<feColorMatrix in="SourceAlpha" type="matrix" values="0 0 0 0 0 0 0 0 0 0 0 0 0 0 0 0 0 0 127 0" result="hardAlpha"/>
<feOffset dy="4"/>
<feGaussianBlur stdDeviation="2"/>
<feComposite in2="hardAlpha" operator="out"/>
<feColorMatrix type="matrix" values="0 0 0 0 0 0 0 0 0 0 0 0 0 0 0 0 0 0 0.25 0"/>
<feBlend mode="normal" in2="BackgroundImageFix" result="effect1_dropShadow_4128_11272"/>
<feBlend mode="normal" in="SourceGraphic" in2="effect1_dropShadow_4128_11272" result="shape"/>
</filter>
<filter id="filter4_d_4128_11272" x="133.49" y="36.2039" width="12.3013" height="40.8726" filterUnits="userSpaceOnUse" color-interpolation-filters="sRGB">
<feFlood flood-opacity="0" result="BackgroundImageFix"/>
<feColorMatrix in="SourceAlpha" type="matrix" values="0 0 0 0 0 0 0 0 0 0 0 0 0 0 0 0 0 0 127 0" result="hardAlpha"/>
<feOffset dy="4"/>
<feGaussianBlur stdDeviation="2"/>
<feComposite in2="hardAlpha" operator="out"/>
<feColorMatrix type="matrix" values="0 0 0 0 0 0 0 0 0 0 0 0 0 0 0 0 0 0 0.25 0"/>
<feBlend mode="normal" in2="BackgroundImageFix" result="effect1_dropShadow_4128_11272"/>
<feBlend mode="normal" in="SourceGraphic" in2="effect1_dropShadow_4128_11272" result="shape"/>
</filter>
</defs>
</svg>
