<svg xmlns="http://www.w3.org/2000/svg" xmlns:xlink="http://www.w3.org/1999/xlink" width="250" zoomAndPan="magnify" viewBox="0 0 187.5 60" height="80" preserveAspectRatio="xMidYMid meet" version="1.0"><defs><g/><clipPath id="9ed0e5a10f"><path d="M 3 54 L 52 54 L 52 59.917969 L 3 59.917969 Z M 3 54 " clip-rule="nonzero"/></clipPath><clipPath id="90d681344d"><path d="M 5 13 L 12 13 L 12 59.917969 L 5 59.917969 Z M 5 13 " clip-rule="nonzero"/></clipPath><clipPath id="671a4cf95d"><path d="M 134 0.078125 L 183 0.078125 L 183 6 L 134 6 Z M 134 0.078125 " clip-rule="nonzero"/></clipPath><clipPath id="2cf8e085ec"><path d="M 174 0.078125 L 180 0.078125 L 180 47 L 174 47 Z M 174 0.078125 " clip-rule="nonzero"/></clipPath></defs><g fill="#000000" fill-opacity="1"><g transform="translate(22.231564, 45.223521)"><g><path d="M 2.171875 -29.953125 L 12.890625 -29.953125 C 15.773438 -29.953125 18.125 -29.179688 19.9375 -27.640625 C 21.75 -26.109375 22.65625 -23.914062 22.65625 -21.0625 C 22.65625 -18.851562 22.101562 -17.003906 21 -15.515625 C 19.90625 -14.035156 18.410156 -12.988281 16.515625 -12.375 L 26.828125 0 L 18.15625 0 L 9 -11.84375 L 9 0 L 2.171875 0 Z M 9 -16.671875 L 9.796875 -16.671875 C 10.429688 -16.671875 10.96875 -16.679688 11.40625 -16.703125 C 11.84375 -16.722656 12.335938 -16.804688 12.890625 -16.953125 C 13.441406 -17.097656 13.890625 -17.300781 14.234375 -17.5625 C 14.578125 -17.832031 14.867188 -18.222656 15.109375 -18.734375 C 15.347656 -19.242188 15.46875 -19.859375 15.46875 -20.578125 C 15.46875 -21.304688 15.347656 -21.925781 15.109375 -22.4375 C 14.867188 -22.945312 14.578125 -23.332031 14.234375 -23.59375 C 13.890625 -23.863281 13.441406 -24.070312 12.890625 -24.21875 C 12.335938 -24.363281 11.84375 -24.445312 11.40625 -24.46875 C 10.96875 -24.5 10.429688 -24.515625 9.796875 -24.515625 L 9 -24.515625 Z M 9 -16.671875 "/></g></g></g><g fill="#000000" fill-opacity="1"><g transform="translate(45.142096, 45.223521)"><g><path d="M 21.03125 -8.421875 L 7.515625 -8.421875 C 7.515625 -7.117188 7.9375 -6.148438 8.78125 -5.515625 C 9.632812 -4.890625 10.554688 -4.578125 11.546875 -4.578125 C 12.585938 -4.578125 13.410156 -4.710938 14.015625 -4.984375 C 14.617188 -5.265625 15.3125 -5.816406 16.09375 -6.640625 L 20.734375 -4.328125 C 18.796875 -1.078125 15.578125 0.546875 11.078125 0.546875 C 8.265625 0.546875 5.851562 -0.414062 3.84375 -2.34375 C 1.832031 -4.269531 0.828125 -6.585938 0.828125 -9.296875 C 0.828125 -12.003906 1.832031 -14.328125 3.84375 -16.265625 C 5.851562 -18.203125 8.265625 -19.171875 11.078125 -19.171875 C 14.023438 -19.171875 16.425781 -18.316406 18.28125 -16.609375 C 20.132812 -14.898438 21.0625 -12.460938 21.0625 -9.296875 C 21.0625 -8.859375 21.050781 -8.566406 21.03125 -8.421875 Z M 7.703125 -11.984375 L 14.78125 -11.984375 C 14.632812 -12.953125 14.25 -13.695312 13.625 -14.21875 C 13.007812 -14.738281 12.21875 -15 11.25 -15 C 10.1875 -15 9.335938 -14.71875 8.703125 -14.15625 C 8.078125 -13.601562 7.742188 -12.878906 7.703125 -11.984375 Z M 7.703125 -11.984375 "/></g></g></g><g fill="#000000" fill-opacity="1"><g transform="translate(63.94963, 45.223521)"><g><path d="M 10.28125 -19.171875 C 11.34375 -19.171875 12.394531 -19.050781 13.4375 -18.8125 C 14.476562 -18.570312 15.253906 -18.328125 15.765625 -18.078125 L 16.515625 -17.71875 L 14.421875 -13.515625 C 12.960938 -14.285156 11.582031 -14.671875 10.28125 -14.671875 C 9.550781 -14.671875 9.035156 -14.59375 8.734375 -14.4375 C 8.429688 -14.28125 8.28125 -13.984375 8.28125 -13.546875 C 8.28125 -13.453125 8.289062 -13.351562 8.3125 -13.25 C 8.34375 -13.15625 8.390625 -13.066406 8.453125 -12.984375 C 8.523438 -12.898438 8.59375 -12.828125 8.65625 -12.765625 C 8.71875 -12.703125 8.820312 -12.632812 8.96875 -12.5625 C 9.113281 -12.488281 9.226562 -12.429688 9.3125 -12.390625 C 9.394531 -12.359375 9.53125 -12.304688 9.71875 -12.234375 C 9.914062 -12.160156 10.0625 -12.101562 10.15625 -12.0625 C 10.257812 -12.03125 10.425781 -11.976562 10.65625 -11.90625 C 10.882812 -11.832031 11.0625 -11.785156 11.1875 -11.765625 C 11.9375 -11.546875 12.585938 -11.300781 13.140625 -11.03125 C 13.703125 -10.769531 14.289062 -10.410156 14.90625 -9.953125 C 15.519531 -9.492188 15.992188 -8.910156 16.328125 -8.203125 C 16.671875 -7.503906 16.84375 -6.707031 16.84375 -5.8125 C 16.84375 -1.570312 13.90625 0.546875 8.03125 0.546875 C 6.695312 0.546875 5.429688 0.34375 4.234375 -0.0625 C 3.035156 -0.476562 2.171875 -0.894531 1.640625 -1.3125 L 0.828125 -1.953125 L 3.453125 -6.359375 C 3.640625 -6.179688 3.890625 -5.976562 4.203125 -5.75 C 4.523438 -5.519531 5.097656 -5.207031 5.921875 -4.8125 C 6.742188 -4.414062 7.457031 -4.21875 8.0625 -4.21875 C 9.394531 -4.21875 10.0625 -4.664062 10.0625 -5.5625 C 10.0625 -5.96875 9.890625 -6.285156 9.546875 -6.515625 C 9.210938 -6.742188 8.640625 -7.003906 7.828125 -7.296875 C 7.015625 -7.585938 6.378906 -7.851562 5.921875 -8.09375 C 4.753906 -8.695312 3.832031 -9.378906 3.15625 -10.140625 C 2.476562 -10.910156 2.140625 -11.925781 2.140625 -13.1875 C 2.140625 -15.070312 2.867188 -16.539062 4.328125 -17.59375 C 5.796875 -18.644531 7.78125 -19.171875 10.28125 -19.171875 Z M 10.28125 -19.171875 "/></g></g></g><g fill="#000000" fill-opacity="1"><g transform="translate(78.726788, 45.223521)"><g><path d="M 3.265625 -18.625 L 3.265625 -25.5625 L 9.703125 -25.5625 L 9.703125 -18.625 L 13.625 -18.625 L 13.625 -13.71875 L 9.703125 -13.71875 L 9.703125 -7.8125 C 9.703125 -6.09375 10.179688 -5.234375 11.140625 -5.234375 C 11.390625 -5.234375 11.644531 -5.28125 11.90625 -5.375 C 12.175781 -5.46875 12.382812 -5.566406 12.53125 -5.671875 L 12.75 -5.8125 L 14.34375 -0.625 C 12.96875 0.15625 11.394531 0.546875 9.625 0.546875 C 8.414062 0.546875 7.375 0.335938 6.5 -0.078125 C 5.625 -0.503906 4.960938 -1.078125 4.515625 -1.796875 C 4.066406 -2.515625 3.742188 -3.265625 3.546875 -4.046875 C 3.359375 -4.835938 3.265625 -5.679688 3.265625 -6.578125 L 3.265625 -13.71875 L 0.578125 -13.71875 L 0.578125 -18.625 Z M 3.265625 -18.625 "/></g></g></g><g fill="#000000" fill-opacity="1"><g transform="translate(89.981898, 45.223521)"><g><path d="M 15.21875 -29.953125 L 15.21875 -8.453125 C 15.21875 -5.523438 14.410156 -3.289062 12.796875 -1.75 C 11.191406 -0.21875 8.882812 0.546875 5.875 0.546875 C 5.082031 0.546875 4.296875 0.445312 3.515625 0.25 C 2.742188 0.0625 2.09375 -0.171875 1.5625 -0.453125 C 1.03125 -0.734375 0.550781 -1.019531 0.125 -1.3125 C -0.300781 -1.601562 -0.609375 -1.84375 -0.796875 -2.03125 L -1.125 -2.328125 L 1.046875 -8.03125 C 2.484375 -6.664062 3.78125 -5.984375 4.9375 -5.984375 C 5.976562 -5.984375 6.8125 -6.328125 7.4375 -7.015625 C 8.070312 -7.710938 8.390625 -8.773438 8.390625 -10.203125 L 8.390625 -29.953125 Z M 15.21875 -29.953125 "/></g></g></g><g fill="#000000" fill-opacity="1"><g transform="translate(103.923931, 45.223521)"><g><path d="M 17.390625 -29.953125 L 29.484375 0 L 22.15625 0 L 19.9375 -5.984375 L 8.53125 -5.984375 L 6.3125 0 L -1.015625 0 L 11.078125 -29.953125 Z M 17.609375 -11.984375 L 14.265625 -20.703125 L 14.203125 -20.703125 L 10.859375 -11.984375 Z M 17.609375 -11.984375 "/></g></g></g><g fill="#000000" fill-opacity="1"><g transform="translate(129.303528, 45.223521)"><g><path d="M 26.9375 0 L 25.53125 -17.75 L 25.34375 -17.75 L 19.203125 -0.1875 L 15.140625 -0.1875 L 9 -17.75 L 8.828125 -17.75 L 7.40625 0 L 0.578125 0 L 3.265625 -29.953125 L 10.53125 -29.953125 L 17.171875 -12.671875 L 23.828125 -29.953125 L 31.078125 -29.953125 L 33.765625 0 Z M 26.9375 0 "/></g></g></g><g clip-path="url(#9ed0e5a10f)"><path stroke-linecap="butt" transform="matrix(0.508505, 0, 0, 0.508505, 5.984042, 54.835167)" fill="none" stroke-linejoin="miter" d="M 0.000654263 5.002388 L 84.431673 5.002388 " stroke="#292929" stroke-width="10" stroke-opacity="1" stroke-miterlimit="4"/></g><g clip-path="url(#90d681344d)"><path stroke-linecap="butt" transform="matrix(0, 0.508505, -0.508505, 0, 11.066485, 16.464266)" fill="none" stroke-linejoin="miter" d="M 0.00113608 5.001028 L 82.465606 5.001028 " stroke="#292929" stroke-width="10" stroke-opacity="1" stroke-miterlimit="4"/></g><g clip-path="url(#671a4cf95d)"><path stroke-linecap="butt" transform="matrix(-0.508505, 0, 0, -0.508505, 179.907355, 5.160717)" fill="none" stroke-linejoin="miter" d="M 0.00217252 5.001976 L 84.433192 5.001976 " stroke="#292929" stroke-width="10" stroke-opacity="1" stroke-miterlimit="4"/></g><g clip-path="url(#2cf8e085ec)"><path stroke-linecap="butt" transform="matrix(0, -0.508505, 0.508505, 0, 174.824921, 43.531613)" fill="none" stroke-linejoin="miter" d="M 0.000713236 4.999492 L 82.465183 4.999492 " stroke="#292929" stroke-width="10" stroke-opacity="1" stroke-miterlimit="4"/></g></svg>