<svg width="140" height="82" viewBox="0 0 140 82" fill="none" xmlns="http://www.w3.org/2000/svg">
<g filter="url(#filter0_d_4186_43562)">
<mask id="mask0_4186_43562" style="mask-type:luminance" maskUnits="userSpaceOnUse" x="43" y="0" width="55" height="55">
<path d="M43.8071 0H97.7403V54.1083H43.8071V0Z" fill="white"/>
</mask>
<g mask="url(#mask0_4186_43562)">
<path fill-rule="evenodd" clip-rule="evenodd" d="M70.7679 -0.00854492C85.6563 -0.00854492 97.7228 12.0609 97.7228 26.9464C97.7228 38.3067 90.693 48.0242 80.7451 51.9929L80.3511 43.4981V43.4835C80.3744 41.8027 81.0836 40.4808 82.6564 39.8125L82.8578 39.7308L82.8695 39.7279L82.8811 39.722L82.9016 39.7162C84.0601 39.2464 85.0055 38.6161 85.6475 37.5218C86.45 36.159 86.6047 34.3439 86.6047 32.7973C86.6047 29.8266 85.7293 26.3219 84.2206 23.7539C83.1496 21.9301 81.46 20.0829 79.1751 20.0829C76.8931 20.0829 75.2006 21.9301 74.1296 23.7539C72.6209 26.3219 71.7455 29.8266 71.7455 32.7973C71.7455 34.3439 71.9001 36.1619 72.7026 37.5218C73.3534 38.6219 74.3076 39.2551 75.472 39.725C75.5041 39.7366 75.5362 39.7512 75.5712 39.7658H75.5799L75.6791 39.8067C77.2579 40.472 77.9786 41.7793 77.9991 43.4835V43.4981L77.5555 53.0376C75.3873 53.6008 73.1141 53.9013 70.7679 53.9013C68.3429 53.9013 65.9909 53.5774 63.7527 52.9763L63.3383 44.0467V44.0263C63.3616 42.3046 64.0941 40.9477 65.7078 40.2648L65.9121 40.1831L65.9209 40.1802L65.9267 40.1773L65.95 40.1685C67.0881 39.7075 68.0161 39.0888 68.6464 38.0149C69.4401 36.6726 69.5919 34.8692 69.5919 33.343C69.5919 33.1941 69.5861 33.0482 69.5773 32.8994C69.5715 32.8148 69.5627 32.7302 69.554 32.6455L69.5394 32.523L69.5627 32.4383L68.5822 21.0371L67.5579 21.0401L67.4675 33.0862L65.7604 33.2583L64.7478 19.6393L63.636 19.7065L63.4142 33.4247L62.8101 33.4509C62.6846 33.4568 62.5592 33.4568 62.4337 33.4568C62.3082 33.4568 62.1798 33.4568 62.0514 33.4509L61.4503 33.4247L61.1439 19.7065L60.032 19.6393L59.1041 33.2583L57.397 33.0891L57.3094 21.0401H56.2793L54.9545 32.4442L54.9749 32.523L54.9632 32.6455C54.9515 32.7302 54.9457 32.8148 54.9399 32.8994C54.9311 33.0482 54.9253 33.1941 54.9253 33.343C54.9253 34.8692 55.077 36.6726 55.8708 38.0149C56.5069 39.0976 57.4466 39.7191 58.5905 40.1773C58.6167 40.1889 58.643 40.2006 58.6693 40.2094H58.678L58.7977 40.2619C60.4114 40.9418 61.1526 42.2842 61.176 44.0263V44.0467L60.8083 52.0045C50.8486 48.0446 43.8101 38.3184 43.8101 26.9464C43.8159 12.058 55.8824 -0.00854492 70.7679 -0.00854492Z" fill="#4338CA"/>
</g>
</g>
<path d="M13.7368 46.3162H22.3045C24.5982 46.3162 26.4716 46.9319 27.919 48.1604C29.3723 49.3919 30.1018 51.1457 30.1018 53.4248C30.1018 55.1844 29.6611 56.6581 28.7828 57.8487C27.9015 59.0393 26.708 59.8768 25.1993 60.3583L33.4402 70.2567H26.5066L19.1996 60.8019V70.2567H13.7368V46.3162ZM19.1996 56.9382H19.8299C20.3347 56.9382 20.7579 56.9324 21.1022 56.9149C21.4524 56.8915 21.8493 56.8215 22.2928 56.7048C22.7422 56.588 23.1012 56.4246 23.3667 56.2145C23.6381 55.9986 23.8715 55.6863 24.0671 55.2807C24.2597 54.878 24.3589 54.3878 24.3589 53.81C24.3589 53.2263 24.2597 52.7332 24.0671 52.3275C23.8715 51.9161 23.6381 51.6038 23.3667 51.3937C23.1012 51.1836 22.7422 51.0202 22.2928 50.9035C21.8493 50.7868 21.4524 50.7226 21.1022 50.7051C20.7579 50.6817 20.3347 50.67 19.8299 50.67H19.1996V56.9382Z" fill="black"/>
<path d="M47.0993 63.5212H36.3138C36.3138 64.5659 36.6523 65.3392 37.3293 65.8441C38.0063 66.3518 38.7417 66.6028 39.5355 66.6028C40.3584 66.6028 41.012 66.4948 41.4965 66.2759C41.9867 66.0512 42.5382 65.6077 43.154 64.9453L46.8775 66.8012C45.328 69.3925 42.7513 70.6882 39.1503 70.6882C36.9091 70.6882 34.9831 69.9236 33.3723 68.3887C31.7673 66.8479 30.9678 64.9978 30.9678 62.8325C30.9678 60.6614 31.7673 58.8026 33.3723 57.253C34.9831 55.7064 36.9091 54.9302 39.1503 54.9302C41.514 54.9302 43.437 55.6159 44.9165 56.9846C46.3931 58.3473 47.1343 60.2967 47.1343 62.8325C47.1343 63.1769 47.1226 63.4045 47.0993 63.5212ZM36.4539 60.6848H42.1151C41.9984 59.9085 41.689 59.3132 41.193 58.8989C40.7027 58.4786 40.0724 58.2685 39.302 58.2685C38.4441 58.2685 37.7641 58.4962 37.2593 58.9455C36.7603 59.3891 36.4918 59.9698 36.4539 60.6848Z" fill="black"/>
<path d="M53.5463 54.9302C54.3926 54.9302 55.233 55.0294 56.0676 55.222C56.8993 55.4175 57.5179 55.613 57.9235 55.8056L58.5305 56.0974L56.8497 59.4591C55.6882 58.8463 54.5881 58.537 53.5463 58.537C52.9627 58.537 52.5483 58.6012 52.309 58.7238C52.0668 58.8492 51.9472 59.0856 51.9472 59.4358C51.9472 59.5146 51.953 59.5934 51.9705 59.6692C51.9939 59.748 52.0318 59.821 52.0872 59.891C52.1485 59.9552 52.204 60.0078 52.2506 60.0544C52.2973 60.1011 52.379 60.1566 52.4958 60.2179C52.6125 60.2733 52.7 60.3171 52.7642 60.3463C52.8343 60.3784 52.9452 60.425 53.1027 60.4863C53.2574 60.5418 53.3741 60.5855 53.4529 60.6147C53.5288 60.6381 53.6572 60.6818 53.8381 60.7431C54.0249 60.7986 54.1679 60.8365 54.27 60.8599C54.8682 61.032 55.3906 61.2275 55.8341 61.4435C56.2777 61.6536 56.7446 61.9425 57.2348 62.3073C57.7309 62.6749 58.1161 63.136 58.3904 63.6963C58.6618 64.2566 58.799 64.8957 58.799 65.6106C58.799 68.9957 56.444 70.6882 51.7371 70.6882C50.6778 70.6882 49.671 70.5248 48.7139 70.1979C47.7567 69.8711 47.0622 69.5443 46.6361 69.2174L45.9941 68.6922L48.0835 65.1787C48.2382 65.3129 48.4395 65.4705 48.6905 65.6573C48.9473 65.8441 49.4025 66.0979 50.0562 66.416C50.7157 66.737 51.2877 66.8946 51.7721 66.8946C52.8372 66.8946 53.3712 66.5386 53.3712 65.8207C53.3712 65.488 53.2341 65.2312 52.9627 65.0503C52.6884 64.8636 52.2273 64.6534 51.5736 64.42C50.9258 64.1865 50.421 63.9764 50.0562 63.7897C49.1282 63.2994 48.3929 62.7508 47.8501 62.1438C47.3131 61.5369 47.0447 60.7315 47.0447 59.7276C47.0447 58.2189 47.6283 57.0429 48.7956 56.2025C49.9628 55.3562 51.5445 54.9302 53.5463 54.9302Z" fill="black"/>
<path d="M59.7503 55.3741V49.8296H64.8862V55.3741H68.0145V59.2844H64.8862V64.0235C64.8862 65.395 65.2714 66.0778 66.0418 66.0778C66.2344 66.0778 66.4387 66.0399 66.6488 65.9611C66.8647 65.8852 67.034 65.8065 67.1507 65.7277L67.3258 65.6109L68.5981 69.7664C67.4921 70.3792 66.2344 70.6885 64.8279 70.6885C63.8532 70.6885 63.0186 70.5193 62.3183 70.1866C61.6237 69.8452 61.0985 69.3899 60.7425 68.8209C60.3923 68.2548 60.1384 67.6536 59.9837 67.0233C59.8262 66.393 59.7503 65.7218 59.7503 65.004V59.2844H57.6025V55.3741H59.7503Z" fill="black"/>
<mask id="mask1_4186_43562" style="mask-type:luminance" maskUnits="userSpaceOnUse" x="0" y="77" width="37" height="5">
<path d="M0 77.5149H36.4827V81.9972H0V77.5149Z" fill="white"/>
</mask>
<g mask="url(#mask1_4186_43562)">
<path d="M0.245117 79.9575H34.3758" stroke="#4338CA" stroke-width="7.21508"/>
</g>
<mask id="mask2_4186_43562" style="mask-type:luminance" maskUnits="userSpaceOnUse" x="0" y="44" width="5" height="38">
<path d="M0 44.6448H4.35971V82H0V44.6448Z" fill="white"/>
</mask>
<g mask="url(#mask2_4186_43562)">
<path d="M2.28467 47.28V80.5994" stroke="#4338CA" stroke-width="7.21147"/>
</g>
<mask id="mask3_4186_43562" style="mask-type:luminance" maskUnits="userSpaceOnUse" x="102" y="34" width="38" height="5">
<path d="M102.97 34.186H139.452V38.6683H102.97V34.186Z" fill="white"/>
</mask>
<g mask="url(#mask3_4186_43562)">
<path d="M139.202 36.2231H105.071" stroke="#4338CA" stroke-width="7.21508"/>
</g>
<mask id="mask4_4186_43562" style="mask-type:luminance" maskUnits="userSpaceOnUse" x="135" y="33" width="5" height="39">
<path d="M135.093 33.4392H139.452V71.5386H135.093V33.4392Z" fill="white"/>
</mask>
<g mask="url(#mask4_4186_43562)">
<path d="M137.162 68.9004V35.581" stroke="#4338CA" stroke-width="7.21147"/>
</g>
<path d="M81.878 46.3162V63.4982C81.878 65.8415 81.2302 67.6274 79.9404 68.8559C78.6564 70.0786 76.815 70.6885 74.4192 70.6885C73.7802 70.6885 73.1499 70.6097 72.5283 70.4551C71.9126 70.3063 71.3902 70.1224 70.9642 69.8948C70.5352 69.6701 70.15 69.4454 69.8086 69.2178C69.4759 68.9843 69.2308 68.7917 69.0732 68.6342L68.8164 68.4007L70.5556 63.8484C71.6995 64.931 72.7326 65.4709 73.6605 65.4709C74.4922 65.4709 75.1575 65.1966 75.6565 64.6421C76.1614 64.0906 76.4153 63.2414 76.4153 62.0975V46.3162H81.878Z" fill="black"/>
<path d="M94.7567 46.3162L104.422 70.2567H98.5503L96.7878 65.4709H87.6715L85.9089 70.2567H80.0376L89.7025 46.3162H94.7567ZM94.9318 60.6851L92.2588 53.7166H92.2004L89.5274 60.6851H94.9318Z" fill="black"/>
<path d="M122.668 70.2567L121.536 56.0628H121.384L116.482 70.1166H113.237L108.334 56.0628H108.182L107.05 70.2567H101.599L103.747 46.3162H109.548L114.859 60.1248L120.17 46.3162H125.971L128.119 70.2567H122.668Z" fill="black"/>
<defs>
<filter id="filter0_d_4186_43562" x="39.8101" y="0" width="61.9126" height="61.9014" filterUnits="userSpaceOnUse" color-interpolation-filters="sRGB">
<feFlood flood-opacity="0" result="BackgroundImageFix"/>
<feColorMatrix in="SourceAlpha" type="matrix" values="0 0 0 0 0 0 0 0 0 0 0 0 0 0 0 0 0 0 127 0" result="hardAlpha"/>
<feOffset dy="4"/>
<feGaussianBlur stdDeviation="2"/>
<feComposite in2="hardAlpha" operator="out"/>
<feColorMatrix type="matrix" values="0 0 0 0 0 0 0 0 0 0 0 0 0 0 0 0 0 0 0.25 0"/>
<feBlend mode="normal" in2="BackgroundImageFix" result="effect1_dropShadow_4186_43562"/>
<feBlend mode="normal" in="SourceGraphic" in2="effect1_dropShadow_4186_43562" result="shape"/>
</filter>
</defs>
</svg>
