<svg xmlns="http://www.w3.org/2000/svg" xmlns:xlink="http://www.w3.org/1999/xlink" width="250" zoomAndPan="magnify" viewBox="0 0 187.5 112.499997" height="150" preserveAspectRatio="xMidYMid meet" version="1.2"><defs><clipPath id="b21dce674d"><path d="M 58.804688 2.238281 L 131 2.238281 L 131 74.667969 L 58.804688 74.667969 Z M 58.804688 2.238281 "/></clipPath><clipPath id="4e004d235e"><path d="M 0.164062 106 L 49 106 L 49 112 L 0.164062 112 Z M 0.164062 106 "/></clipPath><clipPath id="d254d19fc4"><path d="M 0.164062 62 L 6 62 L 6 112.003906 L 0.164062 112.003906 Z M 0.164062 62 "/></clipPath><clipPath id="a5c324b125"><path d="M 138 48 L 186.835938 48 L 186.835938 54 L 138 54 Z M 138 48 "/></clipPath><clipPath id="612104ed61"><path d="M 181 47 L 186.835938 47 L 186.835938 98 L 181 98 Z M 181 47 "/></clipPath></defs><g id="f5f309dd0b"><g clip-rule="nonzero" clip-path="url(#b21dce674d)"><path style=" stroke:none;fill-rule:evenodd;fill:#4338ca;fill-opacity:1;" d="M 94.894531 2.226562 C 114.824219 2.226562 130.976562 18.382812 130.976562 38.308594 C 130.976562 53.515625 121.566406 66.523438 108.25 71.835938 L 107.722656 60.464844 L 107.722656 60.445312 C 107.753906 58.195312 108.703125 56.425781 110.808594 55.53125 L 111.078125 55.421875 L 111.09375 55.417969 L 111.109375 55.410156 L 111.136719 55.402344 C 112.6875 54.773438 113.953125 53.929688 114.8125 52.464844 C 115.886719 50.640625 116.09375 48.210938 116.09375 46.140625 C 116.09375 42.164062 114.921875 37.472656 112.902344 34.035156 C 111.46875 31.59375 109.207031 29.121094 106.148438 29.121094 C 103.09375 29.121094 100.828125 31.59375 99.394531 34.035156 C 97.375 37.472656 96.203125 42.164062 96.203125 46.140625 C 96.203125 48.210938 96.410156 50.644531 97.484375 52.464844 C 98.355469 53.9375 99.632812 54.785156 101.191406 55.414062 C 101.234375 55.429688 101.277344 55.449219 101.324219 55.46875 L 101.335938 55.46875 L 101.46875 55.523438 C 103.582031 56.414062 104.546875 58.164062 104.574219 60.445312 L 104.574219 60.464844 L 103.980469 73.234375 C 101.078125 73.988281 98.035156 74.390625 94.894531 74.390625 C 91.648438 74.390625 88.5 73.957031 85.503906 73.152344 L 84.949219 61.199219 L 84.949219 61.171875 C 84.980469 58.867188 85.960938 57.050781 88.121094 56.136719 L 88.394531 56.027344 L 88.40625 56.023438 L 88.414062 56.019531 L 88.445312 56.007812 C 89.96875 55.390625 91.210938 54.5625 92.054688 53.125 C 93.117188 51.328125 93.320312 48.914062 93.320312 46.871094 C 93.320312 46.671875 93.3125 46.476562 93.300781 46.277344 C 93.292969 46.164062 93.28125 46.050781 93.269531 45.9375 L 93.25 45.773438 L 93.28125 45.660156 L 91.96875 30.398438 L 90.597656 30.402344 L 90.476562 46.527344 L 88.191406 46.757812 L 86.835938 28.527344 L 85.347656 28.617188 L 85.050781 46.980469 L 84.242188 47.015625 C 84.074219 47.023438 83.90625 47.023438 83.738281 47.023438 C 83.570312 47.023438 83.398438 47.023438 83.226562 47.015625 L 82.421875 46.980469 L 82.011719 28.617188 L 80.523438 28.527344 L 79.28125 46.757812 L 76.996094 46.53125 L 76.878906 30.402344 L 75.5 30.402344 L 73.726562 45.667969 L 73.753906 45.773438 L 73.738281 45.9375 C 73.722656 46.050781 73.714844 46.164062 73.707031 46.277344 C 73.695312 46.476562 73.6875 46.671875 73.6875 46.871094 C 73.6875 48.914062 73.890625 51.328125 74.953125 53.125 C 75.804688 54.574219 77.0625 55.40625 78.59375 56.019531 C 78.628906 56.035156 78.664062 56.050781 78.699219 56.0625 L 78.710938 56.0625 L 78.871094 56.132812 C 81.03125 57.042969 82.023438 58.839844 82.054688 61.171875 L 82.054688 61.199219 L 81.5625 71.851562 C 68.230469 66.550781 58.808594 53.53125 58.808594 38.308594 C 58.816406 18.378906 74.96875 2.226562 94.894531 2.226562 "/></g><g style="fill:#000000;fill-opacity:1;"><g transform="translate(16.224321, 96.284012)"><path style="stroke:none" d="M 2.328125 -32.046875 L 13.796875 -32.046875 C 16.867188 -32.046875 19.375 -31.222656 21.3125 -29.578125 C 23.257812 -27.929688 24.234375 -25.582031 24.234375 -22.53125 C 24.234375 -20.175781 23.644531 -18.203125 22.46875 -16.609375 C 21.289062 -15.015625 19.691406 -13.894531 17.671875 -13.25 L 28.703125 0 L 19.421875 0 L 9.640625 -12.65625 L 9.640625 0 L 2.328125 0 Z M 9.640625 -17.828125 L 10.484375 -17.828125 C 11.160156 -17.828125 11.726562 -17.835938 12.1875 -17.859375 C 12.65625 -17.890625 13.1875 -17.984375 13.78125 -18.140625 C 14.382812 -18.296875 14.863281 -18.515625 15.21875 -18.796875 C 15.582031 -19.085938 15.894531 -19.503906 16.15625 -20.046875 C 16.414062 -20.585938 16.546875 -21.242188 16.546875 -22.015625 C 16.546875 -22.796875 16.414062 -23.457031 16.15625 -24 C 15.894531 -24.550781 15.582031 -24.96875 15.21875 -25.25 C 14.863281 -25.53125 14.382812 -25.75 13.78125 -25.90625 C 13.1875 -26.0625 12.65625 -26.148438 12.1875 -26.171875 C 11.726562 -26.203125 11.160156 -26.21875 10.484375 -26.21875 L 9.640625 -26.21875 Z M 9.640625 -17.828125 "/></g></g><g style="fill:#000000;fill-opacity:1;"><g transform="translate(40.727251, 96.284012)"><path style="stroke:none" d="M 22.484375 -9.015625 L 8.046875 -9.015625 C 8.046875 -7.617188 8.5 -6.582031 9.40625 -5.90625 C 10.3125 -5.226562 11.296875 -4.890625 12.359375 -4.890625 C 13.460938 -4.890625 14.335938 -5.035156 14.984375 -5.328125 C 15.640625 -5.628906 16.378906 -6.222656 17.203125 -7.109375 L 22.1875 -4.625 C 20.113281 -1.15625 16.664062 0.578125 11.84375 0.578125 C 8.84375 0.578125 6.265625 -0.445312 4.109375 -2.5 C 1.960938 -4.5625 0.890625 -7.039062 0.890625 -9.9375 C 0.890625 -12.84375 1.960938 -15.332031 4.109375 -17.40625 C 6.265625 -19.476562 8.84375 -20.515625 11.84375 -20.515625 C 15.007812 -20.515625 17.582031 -19.597656 19.5625 -17.765625 C 21.539062 -15.941406 22.53125 -13.332031 22.53125 -9.9375 C 22.53125 -9.476562 22.515625 -9.171875 22.484375 -9.015625 Z M 8.234375 -12.8125 L 15.8125 -12.8125 C 15.65625 -13.851562 15.242188 -14.648438 14.578125 -15.203125 C 13.921875 -15.765625 13.078125 -16.046875 12.046875 -16.046875 C 10.898438 -16.046875 9.988281 -15.742188 9.3125 -15.140625 C 8.644531 -14.546875 8.285156 -13.769531 8.234375 -12.8125 Z M 8.234375 -12.8125 "/></g></g><g style="fill:#000000;fill-opacity:1;"><g transform="translate(60.842003, 96.284012)"><path style="stroke:none" d="M 11 -20.515625 C 12.132812 -20.515625 13.257812 -20.382812 14.375 -20.125 C 15.488281 -19.863281 16.316406 -19.601562 16.859375 -19.34375 L 17.671875 -18.953125 L 15.421875 -14.453125 C 13.867188 -15.273438 12.394531 -15.6875 11 -15.6875 C 10.21875 -15.6875 9.664062 -15.601562 9.34375 -15.4375 C 9.019531 -15.269531 8.859375 -14.953125 8.859375 -14.484375 C 8.859375 -14.378906 8.867188 -14.273438 8.890625 -14.171875 C 8.921875 -14.066406 8.972656 -13.96875 9.046875 -13.875 C 9.128906 -13.789062 9.203125 -13.71875 9.265625 -13.65625 C 9.328125 -13.59375 9.4375 -13.519531 9.59375 -13.4375 C 9.75 -13.363281 9.867188 -13.304688 9.953125 -13.265625 C 10.046875 -13.222656 10.195312 -13.160156 10.40625 -13.078125 C 10.613281 -13.003906 10.769531 -12.945312 10.875 -12.90625 C 10.976562 -12.875 11.148438 -12.816406 11.390625 -12.734375 C 11.640625 -12.660156 11.832031 -12.609375 11.96875 -12.578125 C 12.769531 -12.347656 13.46875 -12.085938 14.0625 -11.796875 C 14.65625 -11.515625 15.28125 -11.128906 15.9375 -10.640625 C 16.601562 -10.148438 17.117188 -9.53125 17.484375 -8.78125 C 17.847656 -8.03125 18.03125 -7.175781 18.03125 -6.21875 C 18.03125 -1.6875 14.878906 0.578125 8.578125 0.578125 C 7.160156 0.578125 5.8125 0.359375 4.53125 -0.078125 C 3.25 -0.515625 2.320312 -0.953125 1.75 -1.390625 L 0.890625 -2.09375 L 3.6875 -6.796875 C 3.894531 -6.617188 4.164062 -6.40625 4.5 -6.15625 C 4.84375 -5.90625 5.453125 -5.566406 6.328125 -5.140625 C 7.210938 -4.710938 7.976562 -4.5 8.625 -4.5 C 10.050781 -4.5 10.765625 -4.976562 10.765625 -5.9375 C 10.765625 -6.382812 10.582031 -6.726562 10.21875 -6.96875 C 9.851562 -7.21875 9.234375 -7.5 8.359375 -7.8125 C 7.492188 -8.125 6.816406 -8.40625 6.328125 -8.65625 C 5.085938 -9.3125 4.101562 -10.046875 3.375 -10.859375 C 2.65625 -11.671875 2.296875 -12.75 2.296875 -14.09375 C 2.296875 -16.113281 3.078125 -17.6875 4.640625 -18.8125 C 6.203125 -19.945312 8.320312 -20.515625 11 -20.515625 Z M 11 -20.515625 "/></g></g><g style="fill:#000000;fill-opacity:1;"><g transform="translate(76.646248, 96.284012)"><path style="stroke:none" d="M 3.5 -19.921875 L 3.5 -27.34375 L 10.375 -27.34375 L 10.375 -19.921875 L 14.5625 -19.921875 L 14.5625 -14.6875 L 10.375 -14.6875 L 10.375 -8.34375 C 10.375 -6.507812 10.890625 -5.59375 11.921875 -5.59375 C 12.179688 -5.59375 12.453125 -5.644531 12.734375 -5.75 C 13.023438 -5.851562 13.25 -5.957031 13.40625 -6.0625 L 13.640625 -6.21875 L 15.34375 -0.65625 C 13.863281 0.164062 12.179688 0.578125 10.296875 0.578125 C 8.992188 0.578125 7.875 0.351562 6.9375 -0.09375 C 6.007812 -0.550781 5.304688 -1.160156 4.828125 -1.921875 C 4.359375 -2.679688 4.019531 -3.484375 3.8125 -4.328125 C 3.601562 -5.171875 3.5 -6.070312 3.5 -7.03125 L 3.5 -14.6875 L 0.625 -14.6875 L 0.625 -19.921875 Z M 3.5 -19.921875 "/></g></g><g clip-rule="nonzero" clip-path="url(#4e004d235e)"><path style="fill:none;stroke-width:10;stroke-linecap:butt;stroke-linejoin:miter;stroke:#4338ca;stroke-opacity:1;stroke-miterlimit:4;" d="M 0.000590845 5.000282 L 84.43025 5.000282 " transform="matrix(0.541131,0,0,0.541131,0.491868,106.563724)"/></g><g clip-rule="nonzero" clip-path="url(#d254d19fc4)"><path style="fill:none;stroke-width:10;stroke-linecap:butt;stroke-linejoin:miter;stroke:#4338ca;stroke-opacity:1;stroke-miterlimit:4;" d="M 0.00276893 5.001128 L 82.466931 5.001128 " transform="matrix(0,0.54086,-0.54086,0,5.927566,65.525846)"/></g><g clip-rule="nonzero" clip-path="url(#a5c324b125)"><path style="fill:none;stroke-width:10;stroke-linecap:butt;stroke-linejoin:miter;stroke:#4338ca;stroke-opacity:1;stroke-miterlimit:4;" d="M 0.00135271 4.998035 L 84.431012 4.998035 " transform="matrix(-0.541131,0,0,-0.541131,186.500732,53.431154)"/></g><g clip-rule="nonzero" clip-path="url(#612104ed61)"><path style="fill:none;stroke-width:10;stroke-linecap:butt;stroke-linejoin:miter;stroke:#4338ca;stroke-opacity:1;stroke-miterlimit:4;" d="M 0.000520837 5.000359 L 82.464683 5.000359 " transform="matrix(0,-0.54086,0.54086,0,181.065037,94.469032)"/></g><g style="fill:#000000;fill-opacity:1;"><g transform="translate(93.485665, 96.284012)"><path style="stroke:none" d="M 16.28125 -32.046875 L 16.28125 -9.046875 C 16.28125 -5.910156 15.414062 -3.519531 13.6875 -1.875 C 11.96875 -0.238281 9.503906 0.578125 6.296875 0.578125 C 5.441406 0.578125 4.597656 0.472656 3.765625 0.265625 C 2.941406 0.0664062 2.242188 -0.179688 1.671875 -0.484375 C 1.097656 -0.785156 0.582031 -1.085938 0.125 -1.390625 C -0.320312 -1.703125 -0.648438 -1.960938 -0.859375 -2.171875 L -1.203125 -2.484375 L 1.125 -8.578125 C 2.65625 -7.128906 4.039062 -6.40625 5.28125 -6.40625 C 6.394531 -6.40625 7.285156 -6.773438 7.953125 -7.515625 C 8.628906 -8.253906 8.96875 -9.390625 8.96875 -10.921875 L 8.96875 -32.046875 Z M 16.28125 -32.046875 "/></g></g><g style="fill:#000000;fill-opacity:1;"><g transform="translate(108.39674, 96.284012)"><path style="stroke:none" d="M 18.609375 -32.046875 L 31.546875 0 L 23.6875 0 L 21.328125 -6.40625 L 9.125 -6.40625 L 6.765625 0 L -1.09375 0 L 11.84375 -32.046875 Z M 18.84375 -12.8125 L 15.265625 -22.140625 L 15.1875 -22.140625 L 11.609375 -12.8125 Z M 18.84375 -12.8125 "/></g></g><g style="fill:#000000;fill-opacity:1;"><g transform="translate(135.540347, 96.284012)"><path style="stroke:none" d="M 28.828125 0 L 27.3125 -19 L 27.109375 -19 L 20.546875 -0.1875 L 16.203125 -0.1875 L 9.640625 -19 L 9.4375 -19 L 7.921875 0 L 0.625 0 L 3.5 -32.046875 L 11.265625 -32.046875 L 18.375 -13.5625 L 25.484375 -32.046875 L 33.25 -32.046875 L 36.125 0 Z M 28.828125 0 "/></g></g></g></svg>